<svg version="1.1" id="Layer_1" xmlns="http://www.w3.org/2000/svg" xmlns:xlink="http://www.w3.org/1999/xlink" x="0px" y="0px"
	 width="100%" viewBox="0 0 600 569" enable-background="new 0 0 600 569" xml:space="preserve">
<path fill="#000000" opacity="1.000000" stroke="none" 
	d="
M601.000000,430.000000 
	C601.000000,476.612762 601.000000,523.225525 601.000000,570.000000 
	C521.645874,570.000000 442.291595,570.000000 362.177673,569.753723 
	C361.124573,568.678284 361.056244,567.637146 360.504486,567.051147 
	C348.484833,554.285034 336.382721,541.596436 324.357391,528.835571 
	C314.958954,518.862305 305.621002,508.831635 296.302673,498.783386 
	C293.176605,495.412384 289.725861,492.205322 287.293701,488.371307 
	C285.341400,485.293854 283.372681,484.520355 280.000061,485.342285 
	C280.000061,499.674316 279.931366,513.822021 280.109650,527.966614 
	C280.126892,529.333496 281.352692,531.175110 282.560974,531.963867 
	C303.037384,545.332703 324.200470,557.415100 347.169159,566.097290 
	C349.300049,566.902771 351.065094,568.676086 353.000000,570.000000 
	C327.645782,570.000000 302.291534,570.000000 276.121704,569.616943 
	C275.537384,567.473877 275.970184,565.713928 275.970978,563.953796 
	C276.004761,489.634033 276.032776,415.314240 275.901398,340.994720 
	C275.894958,337.356018 277.090668,335.368225 280.180695,333.950104 
	C282.071747,333.082245 283.792816,331.848907 285.609863,330.814178 
	C304.880493,319.840332 324.206421,308.962372 343.415802,297.882385 
	C368.062256,283.666321 392.575897,269.220032 417.221741,255.002960 
	C438.238861,242.879135 459.396851,230.999146 480.380920,218.819061 
	C482.336090,217.684189 484.261505,215.388779 484.882507,213.249542 
	C488.238708,201.688400 491.108704,189.987350 494.277435,178.370270 
	C501.821167,150.713638 509.438416,123.077042 517.026001,95.432358 
	C516.630554,94.869453 516.235168,94.306549 515.839783,93.743645 
	C495.570740,104.171234 476.193756,116.235786 456.515869,127.777618 
	C436.561737,139.481476 416.347870,150.741531 396.298798,162.284622 
	C376.378143,173.753769 356.510101,185.314453 336.639130,196.869705 
	C316.707947,208.459961 296.801605,220.093002 276.000000,232.223007 
	C276.000000,228.992691 276.000000,227.193985 276.000000,225.395294 
	C276.000000,182.903061 275.962860,140.410721 276.073334,97.918770 
	C276.081818,94.659752 275.088287,92.445808 272.795746,90.193787 
	C245.739365,63.615768 218.778824,36.940182 191.794144,10.289186 
	C191.202393,9.704772 190.717529,8.939222 190.020142,8.548494 
	C187.987625,7.409730 185.872452,6.418471 183.000000,4.971615 
	C183.000000,8.262214 183.000000,10.081579 183.000000,11.900945 
	C183.000000,161.373627 183.197174,310.847015 182.673950,460.317871 
	C182.625320,474.211609 186.291718,483.825806 196.416489,493.437317 
	C221.251648,517.013367 244.797089,541.948730 268.816803,566.381042 
	C269.777557,567.358276 270.282593,568.783508 271.000000,570.000000 
	C181.057663,570.000000 91.115326,570.000000 1.000000,570.000000 
	C1.000000,432.645813 1.000000,295.291565 1.417463,157.474701 
	C2.217977,157.431732 2.832644,157.795181 2.950095,158.279266 
	C5.640557,169.368347 7.855099,180.592148 11.012553,191.544586 
	C17.237152,213.136230 24.803579,234.286636 34.855759,254.425247 
	C45.105606,274.959839 55.063305,295.689819 66.435722,315.599243 
	C76.004089,332.350342 87.005585,348.338898 98.151733,364.114563 
	C106.773483,376.317322 116.438774,387.801758 125.951401,399.349091 
	C131.803680,406.453186 138.053497,413.256958 144.459778,419.871155 
	C154.337067,430.068848 164.463333,440.027466 174.611832,449.956848 
	C175.495773,450.821686 177.328552,450.716766 178.999924,451.131592 
	C178.999924,420.190033 179.008560,390.031891 178.964157,359.873810 
	C178.962601,358.813568 178.697754,357.572693 178.112000,356.721191 
	C166.863434,340.369049 155.412399,324.154816 144.277435,307.726196 
	C125.383240,279.849579 108.900711,250.598206 96.153336,219.399063 
	C86.793190,196.490143 79.420601,173.027130 80.980072,147.720612 
	C81.866104,133.342484 86.499512,120.396057 96.586456,110.060081 
	C110.103699,96.209106 127.717369,91.435654 146.300400,90.136833 
	C157.070862,89.384048 167.936981,90.000000 179.000000,90.000000 
	C179.000000,60.636837 179.000000,30.818419 179.000000,1.000000 
	C319.586700,1.000000 460.173431,1.000000 601.000000,1.000000 
	C601.000000,116.687454 601.000000,232.375061 600.641479,348.831696 
	C599.815186,347.609985 599.453125,345.587341 598.863037,343.633575 
	C594.275330,328.443970 590.199890,313.070618 584.906982,298.129211 
	C574.661255,269.206635 558.922180,243.162201 540.266418,218.993683 
	C529.185242,204.637939 516.844788,191.250137 504.943024,177.537872 
	C503.686340,176.090042 501.568115,175.389969 498.974121,173.809601 
	C498.974121,176.716980 499.231476,177.938980 498.934814,179.007126 
	C495.373596,191.830017 491.826965,204.659134 488.002869,217.404526 
	C487.438263,219.286377 485.780670,221.266724 484.081451,222.310776 
	C474.771240,228.031326 465.299988,233.490631 455.861115,239.000381 
	C453.581268,240.331192 453.542786,241.590988 455.133728,243.722916 
	C462.386688,253.442261 470.003998,262.951569 476.473755,273.179443 
	C486.910217,289.678192 493.526489,307.481873 493.088562,327.548584 
	C492.567932,351.406647 481.922607,369.520203 462.836121,382.965973 
	C443.601746,396.515839 422.449402,396.754303 400.859375,390.322205 
	C376.352356,383.021057 355.881622,368.726685 337.275726,351.657745 
	C328.909058,343.982208 321.035217,335.754150 313.177795,327.547028 
	C310.390961,324.636200 307.743469,324.315948 304.512085,326.171265 
	C297.267761,330.330627 289.962585,334.395355 282.880463,338.816162 
	C281.467072,339.698425 280.128632,341.991882 280.119843,343.641876 
	C279.956482,374.299744 279.985321,404.958801 280.048676,435.617432 
	C280.051453,436.976227 280.391632,438.643494 281.214844,439.636200 
	C284.255432,443.302887 287.412811,446.901184 290.806335,450.240601 
	C297.292847,456.623505 303.662415,463.181641 310.637390,468.999359 
	C323.370300,479.619659 336.199768,490.174805 349.559967,499.978943 
	C364.775391,511.144562 381.555054,519.775085 399.164520,526.543213 
	C418.780121,534.082275 439.196136,538.423645 460.231415,538.861084 
	C468.711945,539.037598 477.228516,537.714355 485.721832,536.992920 
	C501.016632,535.693787 515.335327,530.871704 528.846436,523.920471 
	C543.797180,516.228516 557.046448,506.287537 568.243042,493.447998 
	C583.995605,475.384033 594.562744,454.991608 599.080811,431.447632 
	C599.192810,430.863831 600.337097,430.478088 601.000000,430.000000 
M241.535583,53.023991 
	C253.454041,64.949944 265.439056,76.810997 277.208435,88.882301 
	C278.714264,90.426788 279.782196,93.036751 279.875702,95.203903 
	C280.198486,102.686478 280.024689,110.191658 279.985199,117.687950 
	C279.973145,119.980164 280.281708,121.217712 283.090668,122.221458 
	C289.260651,124.426224 295.169647,127.462990 300.983795,130.540634 
	C312.915405,136.856476 324.634460,143.575516 336.592316,149.839767 
	C347.258331,155.427277 358.015289,160.877213 368.994110,165.804031 
	C371.469635,166.914948 375.554138,166.572479 378.007233,165.248566 
	C391.856995,157.773972 405.456970,149.834091 419.097656,141.975677 
	C427.041779,137.399078 434.903076,132.678696 442.801239,128.022324 
	C445.785889,126.262703 446.246307,124.708771 443.012909,122.412903 
	C436.148560,117.538933 429.768219,111.952187 422.733917,107.354576 
	C401.449890,93.443336 380.272797,79.318062 358.416016,66.351677 
	C344.224060,57.932411 329.115845,50.954365 314.055969,44.129807 
	C298.164368,36.928341 282.113495,29.888563 265.635925,24.220896 
	C247.465973,17.971109 228.762436,13.251170 210.221619,8.116579 
	C205.700287,6.864469 200.906464,6.596392 196.237930,5.875872 
	C196.005127,6.335481 195.772324,6.795089 195.539520,7.254697 
	C210.698059,22.344595 225.856598,37.434490 241.535583,53.023991 
z"/>
<path fill="#FFFFFF" opacity="1.000000" stroke="none" 
	d="
M271.416656,570.000000 
	C270.282593,568.783508 269.777557,567.358276 268.816803,566.381042 
	C244.797089,541.948730 221.251648,517.013367 196.416489,493.437317 
	C186.291718,483.825806 182.625320,474.211609 182.673950,460.317871 
	C183.197174,310.847015 183.000000,161.373627 183.000000,11.900945 
	C183.000000,10.081579 183.000000,8.262214 183.000000,4.971615 
	C185.872452,6.418471 187.987625,7.409730 190.020142,8.548494 
	C190.717529,8.939222 191.202393,9.704772 191.794144,10.289186 
	C218.778824,36.940182 245.739365,63.615768 272.795746,90.193787 
	C275.088287,92.445808 276.081818,94.659752 276.073334,97.918770 
	C275.962860,140.410721 276.000000,182.903061 276.000000,225.395294 
	C276.000000,227.193985 276.000000,228.992691 276.000000,232.223007 
	C296.801605,220.093002 316.707947,208.459961 336.639130,196.869705 
	C356.510101,185.314453 376.378143,173.753769 396.298798,162.284622 
	C416.347870,150.741531 436.561737,139.481476 456.515869,127.777618 
	C476.193756,116.235786 495.570740,104.171234 515.839783,93.743645 
	C516.235168,94.306549 516.630554,94.869453 517.026001,95.432358 
	C509.438416,123.077042 501.821167,150.713638 494.277435,178.370270 
	C491.108704,189.987350 488.238708,201.688400 484.882507,213.249542 
	C484.261505,215.388779 482.336090,217.684189 480.380920,218.819061 
	C459.396851,230.999146 438.238861,242.879135 417.221741,255.002960 
	C392.575897,269.220032 368.062256,283.666321 343.415802,297.882385 
	C324.206421,308.962372 304.880493,319.840332 285.609863,330.814178 
	C283.792816,331.848907 282.071747,333.082245 280.180695,333.950104 
	C277.090668,335.368225 275.894958,337.356018 275.901398,340.994720 
	C276.032776,415.314240 276.004761,489.634033 275.970978,563.953796 
	C275.970184,565.713928 275.537384,567.473877 275.653046,569.616943 
	C274.611115,570.000000 273.222198,570.000000 271.416656,570.000000 
z"/>
<path fill="#FFFFFF" opacity="1.000000" stroke="none" 
	d="
M601.000000,429.531311 
	C600.337097,430.478088 599.192810,430.863831 599.080811,431.447632 
	C594.562744,454.991608 583.995605,475.384033 568.243042,493.447998 
	C557.046448,506.287537 543.797180,516.228516 528.846436,523.920471 
	C515.335327,530.871704 501.016632,535.693787 485.721832,536.992920 
	C477.228516,537.714355 468.711945,539.037598 460.231415,538.861084 
	C439.196136,538.423645 418.780121,534.082275 399.164520,526.543213 
	C381.555054,519.775085 364.775391,511.144562 349.559967,499.978943 
	C336.199768,490.174805 323.370300,479.619659 310.637390,468.999359 
	C303.662415,463.181641 297.292847,456.623505 290.806335,450.240601 
	C287.412811,446.901184 284.255432,443.302887 281.214844,439.636200 
	C280.391632,438.643494 280.051453,436.976227 280.048676,435.617432 
	C279.985321,404.958801 279.956482,374.299744 280.119843,343.641876 
	C280.128632,341.991882 281.467072,339.698425 282.880463,338.816162 
	C289.962585,334.395355 297.267761,330.330627 304.512085,326.171265 
	C307.743469,324.315948 310.390961,324.636200 313.177795,327.547028 
	C321.035217,335.754150 328.909058,343.982208 337.275726,351.657745 
	C355.881622,368.726685 376.352356,383.021057 400.859375,390.322205 
	C422.449402,396.754303 443.601746,396.515839 462.836121,382.965973 
	C481.922607,369.520203 492.567932,351.406647 493.088562,327.548584 
	C493.526489,307.481873 486.910217,289.678192 476.473755,273.179443 
	C470.003998,262.951569 462.386688,253.442261 455.133728,243.722916 
	C453.542786,241.590988 453.581268,240.331192 455.861115,239.000381 
	C465.299988,233.490631 474.771240,228.031326 484.081451,222.310776 
	C485.780670,221.266724 487.438263,219.286377 488.002869,217.404526 
	C491.826965,204.659134 495.373596,191.830017 498.934814,179.007126 
	C499.231476,177.938980 498.974121,176.716980 498.974121,173.809601 
	C501.568115,175.389969 503.686340,176.090042 504.943024,177.537872 
	C516.844788,191.250137 529.185242,204.637939 540.266418,218.993683 
	C558.922180,243.162201 574.661255,269.206635 584.906982,298.129211 
	C590.199890,313.070618 594.275330,328.443970 598.863037,343.633575 
	C599.453125,345.587341 599.815186,347.609985 600.641479,349.300354 
	C601.000000,375.687561 601.000000,402.375122 601.000000,429.531311 
z"/>
<path fill="#FFFFFF" opacity="1.000000" stroke="none" 
	d="
M178.531342,1.000000 
	C179.000000,30.818419 179.000000,60.636837 179.000000,90.000000 
	C167.936981,90.000000 157.070862,89.384048 146.300400,90.136833 
	C127.717369,91.435654 110.103699,96.209106 96.586456,110.060081 
	C86.499512,120.396057 81.866104,133.342484 80.980072,147.720612 
	C79.420601,173.027130 86.793190,196.490143 96.153336,219.399063 
	C108.900711,250.598206 125.383240,279.849579 144.277435,307.726196 
	C155.412399,324.154816 166.863434,340.369049 178.112000,356.721191 
	C178.697754,357.572693 178.962601,358.813568 178.964157,359.873810 
	C179.008560,390.031891 178.999924,420.190033 178.999924,451.131592 
	C177.328552,450.716766 175.495773,450.821686 174.611832,449.956848 
	C164.463333,440.027466 154.337067,430.068848 144.459778,419.871155 
	C138.053497,413.256958 131.803680,406.453186 125.951401,399.349091 
	C116.438774,387.801758 106.773483,376.317322 98.151733,364.114563 
	C87.005585,348.338898 76.004089,332.350342 66.435722,315.599243 
	C55.063305,295.689819 45.105606,274.959839 34.855759,254.425247 
	C24.803579,234.286636 17.237152,213.136230 11.012553,191.544586 
	C7.855099,180.592148 5.640557,169.368347 2.950095,158.279266 
	C2.832644,157.795181 2.217977,157.431732 1.417463,157.006042 
	C1.000000,133.645767 1.000000,110.291542 1.406241,86.463791 
	C2.548787,84.010620 3.422140,82.070145 4.000771,80.045441 
	C12.241328,51.210777 29.997202,30.287256 56.650856,16.828266 
	C69.038269,10.573136 82.119881,6.358807 95.801476,3.919939 
	C98.295242,3.475400 100.605194,1.999692 103.000000,1.000000 
	C128.020889,1.000000 153.041794,1.000000 178.531342,1.000000 
z"/>
<path fill="#000000" opacity="1.000000" stroke="none" 
	d="
M102.531342,1.000000 
	C100.605194,1.999692 98.295242,3.475400 95.801476,3.919939 
	C82.119881,6.358807 69.038269,10.573136 56.650856,16.828266 
	C29.997202,30.287256 12.241328,51.210777 4.000771,80.045441 
	C3.422140,82.070145 2.548787,84.010620 1.406241,85.995132 
	C1.000000,57.733101 1.000000,29.466202 1.000000,1.000000 
	C34.687298,1.000000 68.374992,1.000000 102.531342,1.000000 
z"/>
<path fill="#FFFFFF" opacity="1.000000" stroke="none" 
	d="
M353.449982,570.000000 
	C351.065094,568.676086 349.300049,566.902771 347.169159,566.097290 
	C324.200470,557.415100 303.037384,545.332703 282.560974,531.963867 
	C281.352692,531.175110 280.126892,529.333496 280.109650,527.966614 
	C279.931366,513.822021 280.000061,499.674316 280.000061,485.342285 
	C283.372681,484.520355 285.341400,485.293854 287.293701,488.371307 
	C289.725861,492.205322 293.176605,495.412384 296.302673,498.783386 
	C305.621002,508.831635 314.958954,518.862305 324.357391,528.835571 
	C336.382721,541.596436 348.484833,554.285034 360.504486,567.051147 
	C361.056244,567.637146 361.124573,568.678284 361.709045,569.753723 
	C359.299988,570.000000 356.599976,570.000000 353.449982,570.000000 
z"/>
<path fill="#FFFFFF" opacity="1.000000" stroke="none" 
	d="
M241.275360,52.774189 
	C225.856598,37.434490 210.698059,22.344595 195.539520,7.254697 
	C195.772324,6.795089 196.005127,6.335481 196.237930,5.875872 
	C200.906464,6.596392 205.700287,6.864469 210.221619,8.116579 
	C228.762436,13.251170 247.465973,17.971109 265.635925,24.220896 
	C282.113495,29.888563 298.164368,36.928341 314.055969,44.129807 
	C329.115845,50.954365 344.224060,57.932411 358.416016,66.351677 
	C380.272797,79.318062 401.449890,93.443336 422.733917,107.354576 
	C429.768219,111.952187 436.148560,117.538933 443.012909,122.412903 
	C446.246307,124.708771 445.785889,126.262703 442.801239,128.022324 
	C434.903076,132.678696 427.041779,137.399078 419.097656,141.975677 
	C405.456970,149.834091 391.856995,157.773972 378.007233,165.248566 
	C375.554138,166.572479 371.469635,166.914948 368.994110,165.804031 
	C358.015289,160.877213 347.258331,155.427277 336.592316,149.839767 
	C324.634460,143.575516 312.915405,136.856476 300.983795,130.540634 
	C295.169647,127.462990 289.260651,124.426224 283.090668,122.221458 
	C280.281708,121.217712 279.973145,119.980164 279.985199,117.687950 
	C280.024689,110.191658 280.198486,102.686478 279.875702,95.203903 
	C279.782196,93.036751 278.714264,90.426788 277.208435,88.882301 
	C265.439056,76.810997 253.454041,64.949944 241.275360,52.774189 
z"/>
</svg>